<?xml version="1.0" standalone="no"?>
<!DOCTYPE svg PUBLIC "-//W3C//DTD SVG 20010904//EN"
 "http://www.w3.org/TR/2001/REC-SVG-20010904/DTD/svg10.dtd">
<svg version="1.0" xmlns="http://www.w3.org/2000/svg"
 width="626.000000pt" height="626.000000pt" viewBox="0 0 626.000000 626.000000"
 preserveAspectRatio="xMidYMid meet">

<g transform="translate(0.000000,626.000000) scale(0.100000,-0.100000)"
fill="#000000" stroke="none">
<path d="M3038 5154 c-90 -142 -120 -201 -142 -274 -31 -106 16 -215 114 -265
47 -24 50 -27 50 -65 0 -38 -1 -39 -37 -45 -89 -13 -214 -48 -289 -81 -81 -35
-83 -35 -150 -23 -85 15 -182 7 -259 -22 -62 -22 -112 -53 -248 -152 -129 -93
-183 -89 -301 24 -85 80 -119 89 -156 42 -45 -57 1 -143 104 -198 45 -24 55
-34 51 -50 -2 -11 -103 -272 -223 -580 l-218 -560 -33 -3 -33 -3 7 -47 c30
-201 185 -383 387 -453 85 -30 229 -36 320 -15 227 53 410 246 443 468 l7 47
-33 3 -33 3 -223 570 c-122 313 -221 570 -220 571 1 1 31 9 66 18 35 9 102 36
150 61 247 129 248 130 341 130 73 0 92 -4 137 -28 28 -14 54 -31 58 -37 4 -6
158 -10 445 -10 l439 0 45 29 c62 39 124 54 197 49 53 -4 85 -17 239 -96 119
-61 199 -95 240 -103 37 -7 59 -16 56 -23 -7 -17 -301 -771 -375 -961 l-66
-170 -34 -3 -33 -3 7 -47 c4 -26 18 -75 31 -110 122 -324 507 -468 817 -305
160 84 276 244 302 415 l7 47 -33 3 -32 3 -219 560 c-120 308 -221 570 -224
582 -5 18 0 25 28 36 44 18 105 72 124 108 33 65 4 129 -58 129 -25 0 -42 -11
-87 -59 -62 -64 -124 -101 -171 -101 -42 0 -97 30 -199 107 -169 127 -293 162
-466 132 -58 -10 -66 -9 -111 14 -71 35 -168 65 -275 85 l-94 17 -3 37 c-3 35
-1 38 35 53 50 21 101 70 124 120 27 58 24 128 -10 207 -32 75 -138 255 -180
307 l-28 34 -75 -119z m-1204 -1103 c5 -8 -24 -1142 -29 -1149 -1 -1 -85 -1
-187 0 l-184 3 183 564 c100 311 185 571 187 578 6 15 22 17 30 4z m2806 -571
l186 -575 -184 -3 c-102 -1 -186 -1 -187 0 -1 2 -8 192 -14 423 -6 231 -14
491 -18 579 -6 150 -5 158 12 154 15 -2 55 -115 205 -578z m-2672 342 c41
-125 123 -378 183 -563 60 -184 109 -341 109 -347 0 -9 -49 -12 -185 -12
l-185 0 0 78 c0 42 -7 289 -15 547 -8 259 -15 482 -15 498 0 19 5 27 18 27 13
0 32 -46 90 -228z m2432 201 c0 -16 -7 -237 -15 -493 -8 -256 -15 -502 -15
-547 l0 -83 -185 0 c-102 0 -185 3 -185 8 -1 4 81 262 182 574 150 464 186
568 201 568 12 0 17 -8 17 -27z m-2060 -1246 c0 -18 -46 -85 -94 -136 -45 -48
-144 -116 -154 -106 -4 3 -2 9 4 13 28 18 102 124 127 180 l28 62 45 0 c29 0
44 -4 44 -13z m1697 -49 c25 -56 99 -162 127 -180 6 -4 8 -10 4 -13 -10 -10
-108 58 -154 106 -43 45 -94 121 -94 139 0 5 20 10 44 10 l45 0 28 -62z"/>
<path d="M2680 4045 l0 -55 445 0 445 0 0 55 0 55 -445 0 -445 0 0 -55z"/>
<path d="M2750 3875 l0 -55 375 0 375 0 0 55 0 55 -375 0 -375 0 0 -55z"/>
<path d="M2830 3485 l0 -265 60 0 60 0 0 265 0 265 -60 0 -60 0 0 -265z"/>
<path d="M3070 3485 l0 -265 55 0 55 0 0 265 0 265 -55 0 -55 0 0 -265z"/>
<path d="M3305 3485 l0 -265 58 0 57 0 0 265 0 265 -57 0 -58 0 0 -265z"/>
<path d="M2750 3085 l0 -55 375 0 375 0 0 55 0 55 -375 0 -375 0 0 -55z"/>
<path d="M2830 2926 c0 -39 4 -55 15 -60 8 -3 24 -20 35 -38 45 -75 17 -240
-78 -464 l-48 -111 58 -63 c105 -114 212 -367 272 -645 l24 -110 1 355 c1 344
0 356 -19 373 -24 20 -26 60 -4 81 20 20 68 21 84 1 19 -23 15 -67 -9 -86 -21
-17 -21 -22 -20 -371 l1 -353 20 85 c74 326 170 555 287 682 l48 52 -35 81
c-87 201 -125 357 -108 447 3 19 20 48 36 64 25 25 29 37 30 82 l0 52 -295 0
-295 0 0 -54z"/>
<path d="M1574 2262 c-16 -52 -47 -103 -74 -123 -16 -13 -30 -26 -30 -30 0 -3
23 -9 51 -13 78 -10 319 -73 432 -113 335 -116 667 -301 956 -533 138 -111
120 -78 -54 96 -299 300 -695 537 -1148 690 -114 38 -129 41 -133 26z"/>
<path d="M4525 2226 c-189 -66 -245 -90 -428 -183 -163 -83 -332 -191 -477
-304 -101 -78 -294 -264 -351 -339 -33 -43 -31 -42 52 26 407 333 881 563
1353 656 61 12 113 24 116 26 2 2 -10 14 -28 28 -33 26 -72 90 -72 118 0 8 -3
17 -7 19 -5 3 -75 -19 -158 -47z"/>
<path d="M1240 2068 c-1 -38 -39 -111 -81 -154 l-40 -41 97 -7 c633 -44 1255
-249 1764 -580 l85 -55 -60 55 c-306 285 -863 572 -1392 718 -116 33 -344 86
-365 86 -4 0 -8 -10 -8 -22z"/>
<path d="M4945 2078 c-373 -89 -474 -120 -715 -215 -370 -146 -758 -375 -970
-573 -65 -60 -65 -61 -15 -27 182 124 484 280 706 364 328 125 741 216 1087
239 l103 7 -39 41 c-46 47 -67 86 -77 139 -8 40 -12 42 -80 25z"/>
<path d="M918 1733 c-6 -79 -31 -135 -89 -198 l-40 -43 343 5 c232 4 388 2
483 -6 455 -40 792 -144 1293 -397 l202 -103 0 64 0 65 -117 78 c-379 252
-762 407 -1251 507 -223 45 -626 95 -767 95 l-52 0 -5 -67z"/>
<path d="M5065 1785 c-737 -73 -1281 -248 -1769 -568 l-146 -96 0 -65 0 -66
203 103 c501 256 845 361 1303 398 99 8 262 10 482 6 l333 -5 -40 43 c-58 63
-83 119 -89 198 l-5 67 -71 -1 c-39 -1 -129 -7 -201 -14z"/>
<path d="M3141 1414 c0 -11 3 -14 6 -6 3 7 2 16 -1 19 -3 4 -6 -2 -5 -13z"/>
</g>
</svg>
