<?xml version="1.0" standalone="no"?>
<!DOCTYPE svg PUBLIC "-//W3C//DTD SVG 20010904//EN"
 "http://www.w3.org/TR/2001/REC-SVG-20010904/DTD/svg10.dtd">
<svg version="1.0" xmlns="http://www.w3.org/2000/svg"
 width="1024.000000pt" height="1024.000000pt" viewBox="0 0 1024.000000 1024.000000"
 preserveAspectRatio="xMidYMid meet">

<g transform="translate(0.000000,1024.000000) scale(0.100000,-0.100000)"
fill="#000000" stroke="none">
<path d="M7958 8790 c-39 -12 -67 -34 -96 -77 -23 -32 -27 -49 -27 -109 0 -62
3 -75 28 -107 15 -19 43 -41 62 -48 l35 -13 0 -514 c0 -438 -2 -512 -14 -505
-8 4 -60 52 -116 107 l-102 99 7 47 c13 93 -48 164 -152 176 -93 12 -158 -43
-169 -143 -14 -115 39 -183 147 -191 44 -3 65 0 84 12 34 22 54 15 102 -37 22
-23 78 -76 126 -117 l86 -75 0 -1216 1 -1216 -57 -34 c-41 -25 -63 -46 -80
-78 -46 -88 -22 -211 54 -269 29 -21 49 -27 102 -30 83 -4 142 23 186 86 27
39 30 52 30 116 0 63 -4 78 -28 115 -20 30 -43 49 -78 65 l-49 21 0 1207 0
1207 53 49 c28 27 97 86 151 132 l99 82 28 -16 c15 -9 49 -16 76 -16 124 0
190 121 131 240 -30 60 -92 93 -161 87 -80 -7 -126 -66 -128 -164 l-1 -58
-109 -102 c-60 -57 -116 -103 -124 -103 -18 0 -19 101 -8 678 l6 362 33 19
c45 27 78 93 78 158 0 42 -6 61 -29 95 -46 65 -117 97 -177 78z m74 -137 c22
-20 23 -61 1 -85 -18 -21 -53 -24 -71 -6 -13 13 -17 90 -5 101 12 13 56 7 75
-10z m15 -3933 c75 -45 44 -160 -44 -160 -78 0 -125 97 -70 147 41 38 69 41
114 13z"/>
<path d="M3005 8758 c-57 -44 -82 -155 -50 -217 17 -33 70 -81 90 -81 11 0 14
-64 17 -333 2 -265 6 -337 17 -350 16 -20 47 -22 57 -6 4 7 6 164 5 349 l-2
338 42 23 c106 60 105 218 -1 278 -52 29 -137 29 -175 -1z"/>
<path d="M3794 8695 c-20 -20 -24 -32 -19 -53 15 -61 71 -69 95 -13 13 34 2
64 -30 81 -17 9 -25 6 -46 -15z"/>
<path d="M6337 8692 c-36 -40 -9 -102 45 -102 29 0 58 28 58 56 0 55 -68 85
-103 46z"/>
<path d="M6934 8675 c-32 -49 18 -112 66 -83 26 16 36 52 21 84 -15 34 -64 33
-87 -1z"/>
<path d="M6667 8673 c-10 -10 -8 -51 2 -57 15 -10 41 5 41 23 0 28 -28 50 -43
34z"/>
<path d="M5049 8542 c16 -29 -1 -86 -27 -90 -12 -2 -22 -8 -22 -13 0 -5 -9 -9
-20 -9 -11 0 -20 -4 -20 -9 0 -5 -18 -12 -40 -15 -22 -3 -58 -9 -80 -12 -25
-4 -40 -11 -40 -20 0 -10 -12 -14 -40 -14 -22 0 -40 -4 -40 -10 0 -5 -9 -10
-20 -10 -11 0 -20 -4 -20 -10 0 -5 -9 -10 -20 -10 -11 0 -20 -4 -20 -10 0 -5
-9 -10 -20 -10 -11 0 -20 -4 -20 -10 0 -5 -18 -10 -40 -10 -33 0 -40 -3 -40
-20 0 -17 -7 -20 -40 -20 -33 0 -40 -3 -40 -20 0 -13 -7 -20 -20 -20 -18 0
-20 -7 -20 -60 0 -33 4 -60 10 -60 6 0 10 -7 10 -15 0 -12 5 -13 27 -4 23 8
30 7 40 -8 7 -10 17 -23 22 -29 28 -33 -21 -72 -55 -44 -10 9 -14 9 -14 1 0
-6 -9 -11 -20 -11 -16 0 -20 7 -20 35 0 28 -4 35 -20 35 -13 0 -20 7 -20 20 0
13 -7 20 -20 20 -13 0 -20 -7 -20 -20 0 -17 -7 -20 -40 -20 -33 0 -40 3 -40
20 0 18 -7 20 -80 20 -73 0 -80 -2 -80 -20 0 -13 -7 -20 -20 -20 -13 0 -20 -7
-20 -20 0 -13 7 -20 20 -20 13 0 20 -7 20 -20 0 -17 -7 -20 -40 -20 -33 0 -40
3 -40 20 0 17 -7 20 -40 20 -22 0 -40 -4 -40 -10 0 -5 -9 -10 -20 -10 -17 0
-20 -7 -20 -50 0 -43 -3 -50 -20 -50 -13 0 -20 7 -20 20 0 19 -7 20 -140 20
-133 0 -140 -1 -140 -20 0 -13 -7 -20 -20 -20 -15 0 -20 -7 -20 -25 0 -22 -4
-25 -40 -25 -29 0 -40 -4 -40 -15 0 -10 -10 -15 -30 -15 -16 0 -30 -5 -30 -11
0 -16 -26 -39 -44 -39 -9 0 -16 -7 -16 -15 0 -14 -35 -22 -65 -15 -5 1 -24 2
-42 2 -25 0 -30 3 -26 17 3 9 -11 -2 -33 -24 -149 -155 -359 -455 -471 -675
-73 -143 -153 -365 -198 -552 -46 -193 -65 -355 -65 -568 0 -285 28 -493 99
-745 55 -194 106 -319 202 -497 157 -293 308 -497 504 -686 157 -151 237 -215
405 -322 80 -51 161 -103 181 -116 19 -13 39 -24 43 -24 4 0 58 -24 119 -54
62 -29 189 -80 282 -111 229 -78 274 -101 245 -128 -10 -9 -11 -9 -5 2 5 9 4
12 -2 8 -16 -10 -23 -245 -24 -809 l-1 -526 -40 14 c-22 8 -59 14 -83 14 l-42
0 -6 263 c-4 144 -7 450 -7 680 l0 418 -32 -4 -33 -3 -5 -175 c-7 -260 7
-1118 19 -1158 8 -27 8 -36 -4 -45 -23 -18 -35 -63 -35 -132 0 -110 53 -182
151 -203 151 -33 240 83 196 254 -10 39 -11 120 -4 370 9 348 4 1005 -9 1044
-7 23 -5 24 27 18 19 -4 69 -13 112 -21 43 -8 79 -16 80 -17 2 -2 1 -192 -1
-421 -3 -346 -6 -418 -18 -418 -19 0 -82 -57 -98 -89 -46 -91 -10 -218 73
-257 52 -25 133 -15 171 21 41 39 60 85 60 142 -1 63 -29 123 -74 158 l-36 27
0 420 0 419 33 -6 c54 -9 171 -25 190 -25 16 0 17 30 17 490 l0 490 -27 2
c-16 1 -192 2 -393 2 l-365 1 4 60 c1 33 5 63 8 68 8 13 1587 9 1601 -5 27
-27 252 117 402 259 131 123 272 297 305 376 l14 33 -127 1 c-110 0 -138 3
-207 26 -85 28 -199 99 -255 158 -17 19 -44 57 -61 86 l-31 52 -129 -6 -129
-6 0 46 c0 27 6 52 15 61 20 20 105 33 115 17 4 -8 28 -11 66 -9 l59 3 7 62
c4 34 19 90 33 125 15 35 39 95 54 133 41 104 283 666 331 769 22 48 40 90 38
91 -12 13 -555 254 -639 285 -115 41 -330 97 -393 102 -37 3 -40 1 -46 -27
-14 -66 -70 -135 -136 -168 -30 -16 -31 -17 -23 -64 4 -26 8 -56 8 -65 1 -10
8 -18 16 -18 8 0 36 -13 63 -29 l48 -28 -4 27 c-6 43 13 44 81 6 69 -39 107
-46 107 -20 0 11 6 13 19 9 10 -3 75 -1 142 4 109 9 132 14 191 44 l68 33 4
-30 c3 -17 7 -47 10 -66 14 -103 49 -229 76 -276 36 -64 37 -87 8 -134 l-21
-35 -8 28 c-4 16 -26 59 -47 95 -22 37 -47 91 -57 120 -17 52 -15 78 11 169
l6 23 -56 -20 c-56 -19 -309 -60 -372 -60 -19 0 -49 7 -66 16 -17 9 -61 17
-97 19 -36 1 -77 6 -91 9 l-25 7 -1 -760 -1 -759 24 9 c31 12 96 12 89 0 -3
-5 -28 -17 -56 -27 l-50 -18 1 -65 c1 -43 3 -57 8 -41 7 25 86 89 97 78 13
-14 -68 -128 -91 -128 -15 0 -31 -69 -18 -80 4 -5 17 -10 28 -13 19 -5 19 -5
-2 -12 -18 -6 -22 -17 -28 -86 -4 -44 -5 -82 -3 -84 2 -3 101 -5 219 -6 271
-1 296 -4 332 -40 22 -22 28 -36 25 -61 l-3 -33 -605 -7 c-333 -4 -620 -5
-639 -2 -31 5 -33 7 -27 37 9 46 55 88 107 98 24 4 125 8 225 9 l181 0 7 61
c3 34 6 102 6 150 l0 89 -124 -1 c-144 0 -215 15 -326 69 -95 46 -226 176
-332 329 -40 59 -77 108 -83 110 -5 2 -26 -32 -46 -75 -89 -188 -297 -311
-527 -312 -249 0 -475 134 -569 339 -36 79 -34 91 16 91 20 0 22 3 16 23 -22
68 -18 91 45 230 33 76 67 154 75 175 7 20 37 89 65 152 29 63 83 189 120 280
37 91 84 200 104 242 l35 78 -32 14 c-69 30 -107 91 -107 172 0 84 45 141 119
151 33 5 41 1 64 -27 21 -25 25 -35 17 -50 -6 -11 -17 -17 -24 -14 -23 9 -58
-33 -50 -59 26 -85 108 -83 334 11 l136 56 17 125 c22 159 23 308 2 359 -9 20
-32 54 -52 74 -43 44 -42 69 11 151 49 76 72 91 178 117 51 13 185 56 298 97
233 84 384 119 565 129 l120 7 3 333 c2 296 1 334 -13 334 -12 0 -13 -4 -6
-18z m-529 -356 c0 -7 -9 -16 -20 -19 -15 -4 -20 0 -20 14 0 12 7 19 20 19 11
0 20 -6 20 -14z m-560 -246 c0 -13 -7 -20 -20 -20 -13 0 -20 7 -20 20 0 13 7
20 20 20 13 0 20 -7 20 -20z m-322 -452 c30 -25 1 -98 -38 -98 -29 0 -60 33
-69 73 -7 30 -6 37 6 37 8 0 11 -4 8 -10 -3 -5 -1 -10 4 -10 6 0 11 6 11 13 0
15 57 11 78 -5z m2097 -1048 c-5 -8 -96 -39 -190 -64 -11 -3 9 -3 45 -1 46 4
82 14 123 35 41 21 59 26 61 18 2 -7 9 -35 16 -62 21 -93 105 -233 148 -247
10 -3 5 -25 -22 -85 -28 -64 -34 -88 -29 -119 6 -37 4 -39 -83 -121 l-89 -84
-6 32 c-7 44 5 74 46 120 25 27 35 48 35 71 0 17 14 61 30 95 17 35 30 72 30
82 0 26 -131 146 -177 160 -21 7 -74 32 -118 55 -57 30 -97 45 -140 49 -53 6
-58 5 -45 -8 8 -8 42 -28 75 -45 35 -17 54 -31 45 -34 -8 -2 -37 -12 -65 -21
-66 -21 -76 -21 -143 10 -51 23 -55 27 -39 39 12 8 14 15 8 20 -6 3 -11 17
-11 31 0 25 8 28 75 26 17 0 22 2 13 4 -19 6 -24 19 -10 28 5 3 35 -2 67 -10
55 -15 66 -14 160 5 148 30 199 36 190 21z m-157 -205 c15 -8 54 -26 87 -41
l60 -26 -42 -15 c-23 -8 -64 -34 -91 -58 -37 -33 -52 -41 -60 -33 -23 23 -12
55 32 96 24 22 41 43 38 46 -14 15 -54 3 -103 -29 -48 -33 -55 -35 -81 -24
-41 17 -32 39 27 71 56 31 95 35 133 13z m-316 -173 c61 -174 118 -375 118
-416 0 -77 -52 -211 -126 -322 -62 -93 -86 -42 -35 73 16 37 35 90 42 116 6
26 21 54 32 62 20 14 20 15 -13 172 -18 87 -43 199 -56 249 -24 92 -29 135
-18 147 15 15 31 -9 56 -81z m506 68 c1 -8 -18 -40 -44 -70 -25 -30 -54 -73
-64 -95 -23 -51 -26 -186 -5 -284 8 -40 15 -97 15 -128 0 -46 2 -53 14 -44 7
6 67 38 132 71 96 48 120 56 122 43 11 -48 -71 -114 -163 -131 -129 -26 -132
-27 -149 -85 -9 -29 -36 -94 -60 -145 -38 -80 -51 -99 -94 -128 -28 -20 -76
-42 -108 -49 -93 -22 -105 -18 -44 17 171 97 179 106 240 281 38 108 42 127
41 211 -1 50 -8 123 -16 161 -8 39 -15 109 -15 156 l0 87 78 76 c76 75 113 92
120 56z m-325 -34 c-2 -26 -63 -129 -72 -121 -5 5 -51 138 -51 148 0 4 28 7
63 5 61 -3 62 -3 60 -32z m-2548 -25 c36 -20 51 -35 53 -52 14 -117 -179 -168
-217 -58 -20 58 -15 74 37 108 26 17 54 31 62 30 8 0 38 -13 65 -28z m2605
-128 c0 -43 -50 -163 -69 -163 -11 0 -30 44 -37 89 -7 44 4 71 50 119 28 30
32 31 43 15 7 -9 13 -36 13 -60z m458 -160 c3 -25 -4 -37 -41 -70 -45 -39
-143 -93 -170 -93 -14 0 -33 47 -24 56 19 19 214 142 222 140 6 -1 11 -16 13
-33z m-445 -30 c27 -97 41 -203 29 -215 -24 -24 -91 135 -92 219 0 21 24 53
39 53 5 0 16 -26 24 -57z m-38 -257 c10 -35 15 -77 12 -103 -6 -55 -53 -133
-92 -153 -17 -8 -50 -31 -75 -51 -49 -39 -90 -63 -90 -54 0 4 13 25 28 48 45
65 118 200 135 248 9 24 21 70 27 102 11 53 13 57 25 40 7 -10 21 -45 30 -77z
m362 -242 c30 -8 19 -31 -21 -44 -39 -13 -192 -40 -226 -40 -22 0 -21 3 23 45
l48 45 77 0 c42 0 87 -3 99 -6z m-33 -170 c10 -26 7 -32 -25 -43 -83 -29 -315
-22 -335 10 -10 16 -3 19 92 33 130 20 260 20 268 0z m-392 -84 c19 -15 48
-21 122 -26 l96 -7 0 -32 c0 -25 -5 -34 -22 -39 -42 -11 -103 -6 -143 13 -25
11 -54 16 -74 13 -22 -3 -36 0 -42 9 -10 16 -12 73 -2 82 12 13 40 7 65 -13z
m571 -81 c7 -56 22 -68 92 -77 43 -5 61 -12 63 -23 2 -11 -6 -18 -26 -22 -48
-10 -60 -29 -54 -87 l5 -52 -42 28 c-29 19 -47 25 -55 18 -76 -55 -81 -55 -64
-1 16 53 0 83 -52 97 -54 15 -54 40 1 40 22 0 49 -4 59 -10 16 -8 19 -5 25 23
24 115 39 136 48 66z m-563 -110 c0 -21 -20 -29 -70 -29 -80 0 -87 16 -33 79
l36 43 33 -38 c18 -22 33 -46 34 -55z m-1658 -456 c20 -18 24 -63 6 -81 -17
-17 -59 -15 -86 4 -31 22 -29 60 6 78 35 20 51 20 74 -1z m800 -440 c25 -30
29 -53 13 -83 -21 -41 -62 -50 -87 -20 -28 34 -32 67 -14 95 20 30 65 34 88 8z
m270 -1650 c27 -31 29 -56 8 -91 -26 -43 -78 -46 -109 -6 -27 35 -26 59 4 89
29 29 75 33 97 8z m-397 -458 c32 -31 34 -84 5 -110 -63 -57 -180 41 -127 107
28 35 89 37 122 3z"/>
<path d="M5110 8497 l0 -65 88 -12 c171 -24 409 -71 548 -110 422 -117 792
-334 1117 -658 493 -489 752 -1144 722 -1827 -25 -560 -185 -1021 -503 -1445
-92 -123 -297 -335 -423 -437 -221 -180 -515 -341 -799 -438 -222 -76 -385
-110 -672 -140 l-58 -6 0 -76 0 -76 123 6 c68 4 131 9 139 12 11 4 17 -1 20
-17 3 -13 3 -201 -1 -418 -6 -390 -6 -395 -27 -405 -60 -30 -94 -90 -94 -167
0 -103 69 -178 164 -178 62 0 110 23 149 71 68 86 33 215 -74 270 l-39 19 0
400 c0 219 4 410 9 423 8 21 18 25 68 31 69 8 183 36 268 66 33 11 80 27 105
34 l45 13 2 -715 c2 -469 6 -719 13 -726 15 -15 28 3 41 59 16 75 24 1096 10
1253 -12 125 -10 156 8 109 6 -14 180 -194 388 -400 l378 -375 -22 -24 c-36
-38 -63 -108 -63 -166 0 -156 162 -249 309 -176 79 40 106 87 106 183 0 137
-62 208 -191 219 l-68 5 -265 259 c-146 143 -320 315 -386 381 -66 67 -131
129 -145 139 l-25 16 60 27 c301 134 528 284 748 495 82 79 89 84 99 65 7 -11
37 -47 68 -80 31 -33 63 -68 71 -78 43 -55 554 -537 609 -575 36 -25 91 -65
123 -88 126 -93 275 -74 345 44 60 104 17 252 -91 309 -16 8 -59 17 -96 20
l-68 6 -209 215 c-433 447 -479 489 -522 474 -32 -10 -2 -51 146 -199 86 -87
239 -243 340 -348 165 -172 181 -192 170 -210 -33 -55 -48 -93 -49 -125 -3
-97 5 -102 -242 141 -411 403 -512 498 -547 516 -19 10 -37 19 -39 20 -2 1 33
37 76 80 80 78 151 167 243 300 53 77 70 93 70 68 0 -26 28 -61 98 -121 142
-120 703 -659 804 -773 48 -53 61 -63 83 -59 14 3 25 1 25 -3 0 -5 6 -9 14 -9
18 0 27 49 14 74 -14 27 -113 119 -343 322 -121 107 -277 253 -350 327 -90 92
-267 252 -293 266 -13 7 -30 10 -38 7 -20 -8 -19 -3 25 77 163 297 275 650
317 997 22 184 22 498 0 655 -30 207 -79 413 -137 575 -54 146 -183 399 -278
542 -238 356 -624 700 -1012 902 -340 177 -711 281 -1046 293 l-153 6 0 -66z
m2956 -5079 c61 -42 72 -107 25 -157 -69 -74 -183 -15 -172 89 3 21 77 90 97
90 10 0 32 -10 50 -22z m-1036 -965 c59 -75 -23 -184 -115 -153 -61 20 -82 87
-45 147 35 58 117 60 160 6z m-1527 -191 c51 -53 26 -122 -45 -122 -52 0 -82
79 -48 123 27 35 59 34 93 -1z"/>
<path d="M4758 8523 c7 -3 16 -2 19 1 4 3 -2 6 -13 5 -11 0 -14 -3 -6 -6z"/>
<path d="M4618 8503 c6 -2 18 -2 25 0 6 3 1 5 -13 5 -14 0 -19 -2 -12 -5z"/>
<path d="M4563 8493 c9 -2 23 -2 30 0 6 3 -1 5 -18 5 -16 0 -22 -2 -12 -5z"/>
<path d="M4518 8483 c7 -3 16 -2 19 1 4 3 -2 6 -13 5 -11 0 -14 -3 -6 -6z"/>
<path d="M4295 8420 c-3 -6 1 -7 9 -4 18 7 21 14 7 14 -6 0 -13 -4 -16 -10z"/>
<path d="M4180 8380 c-9 -6 -10 -10 -3 -10 6 0 15 5 18 10 8 12 4 12 -15 0z"/>
<path d="M2076 8357 c-70 -40 -98 -105 -82 -192 9 -46 70 -115 102 -115 l23 0
3 -330 c2 -219 0 -330 -7 -330 -12 0 -72 49 -181 147 -76 69 -79 75 -76 110 5
58 -33 123 -88 151 -114 57 -231 -8 -234 -131 -2 -89 54 -147 147 -155 49 -4
56 -2 73 20 l18 25 26 -24 c14 -12 75 -63 135 -112 61 -49 127 -106 148 -127
l38 -39 2 -1930 2 -1930 -37 -17 c-60 -28 -91 -79 -96 -155 -6 -88 15 -140 70
-176 38 -25 50 -28 110 -25 74 4 107 21 145 77 61 89 26 234 -68 285 l-36 20
-6 209 c-4 116 -7 985 -7 1932 l0 1723 150 145 150 146 35 -14 c70 -30 145
-10 190 50 68 88 29 209 -80 250 -62 24 -132 7 -175 -41 -31 -36 -33 -44 -34
-134 l-1 -55 -110 -104 -110 -104 -6 31 c-4 17 -4 164 -1 327 4 231 8 295 18
295 21 0 71 69 84 115 39 141 -107 255 -234 182z"/>
<path d="M5126 8327 c-12 -59 -7 -74 32 -100 109 -74 146 -141 122 -219 -15
-52 -67 -103 -120 -119 -39 -12 -40 -13 -40 -59 l0 -48 103 -12 c405 -48 766
-209 1079 -483 95 -84 213 -213 254 -279 15 -24 49 -63 76 -87 53 -47 71 -76
83 -131 4 -19 27 -65 51 -101 63 -96 110 -215 161 -409 25 -100 27 -118 29
-360 l1 -255 37 -75 c41 -85 44 -110 16 -135 -11 -10 -20 -14 -20 -9 0 12 -48
64 -59 64 -9 0 -41 -72 -41 -91 0 -7 21 -10 58 -8 113 5 152 1 152 -18 0 -10
-22 -56 -50 -103 -64 -108 -161 -202 -257 -249 -67 -32 -71 -36 -102 -100
-120 -242 -447 -563 -693 -679 -52 -25 -78 -43 -78 -54 0 -26 -17 -31 -94 -29
-70 2 -72 1 -129 -43 -91 -70 -241 -112 -448 -123 l-119 -6 0 -69 c0 -50 3
-68 13 -68 20 0 47 -33 47 -58 0 -28 -7 -28 -29 0 -23 27 -41 16 -41 -25 0
-26 10 -43 50 -82 28 -27 50 -58 50 -69 0 -11 -23 -42 -51 -68 -45 -44 -50
-53 -47 -86 l3 -37 55 3 c138 7 388 52 546 97 314 91 694 291 899 473 38 34
72 62 76 62 4 0 71 69 149 153 344 369 558 812 637 1323 23 148 23 552 -1 708
-46 313 -160 617 -336 901 -132 212 -244 345 -448 529 -144 129 -237 198 -390
289 -308 184 -562 268 -1074 355 l-106 18 -6 -29z m430 -141 c18 -7 18 -26 0
-26 -24 0 -35 -25 -55 -121 -10 -52 -22 -106 -26 -120 -6 -24 -2 -28 34 -42
67 -27 118 -32 136 -13 18 17 35 21 35 7 0 -5 -9 -30 -21 -55 -16 -36 -24 -45
-33 -37 -15 13 -233 81 -258 81 -27 0 -21 19 10 33 36 16 39 20 46 88 4 32 13
84 22 114 13 54 13 58 -6 85 -11 15 -20 30 -20 32 0 5 112 -17 136 -26z m358
-108 c34 -12 67 -26 73 -31 18 -13 6 -27 -21 -27 -31 0 -42 -15 -55 -79 -6
-30 -23 -81 -38 -113 -20 -45 -23 -62 -15 -70 13 -13 16 -58 4 -58 -4 0 -17 7
-28 15 -12 8 -42 22 -67 32 -52 21 -54 32 -12 53 23 11 34 28 48 70 10 30 30
84 44 118 15 36 22 67 17 70 -5 4 -15 15 -23 25 -18 23 -3 22 73 -5z m410
-206 c79 -54 115 -132 83 -177 -18 -23 -37 -11 -37 23 0 37 -33 88 -72 113
-113 70 -247 -76 -184 -200 29 -55 120 -95 164 -72 16 8 24 6 42 -14 13 -14
20 -28 16 -32 -4 -5 -38 -8 -75 -8 -60 0 -74 4 -127 36 -75 46 -114 113 -114
199 0 92 44 137 155 160 56 12 104 3 149 -28z m487 -444 l30 -37 -40 -21 c-50
-25 -49 -25 -44 4 4 17 -7 38 -39 76 -23 29 -48 55 -54 57 -14 5 -74 -44 -74
-60 0 -7 18 -29 41 -50 30 -29 39 -45 37 -64 -5 -42 -23 -37 -62 17 -41 57
-61 62 -99 22 l-26 -27 56 -70 c30 -39 62 -71 69 -73 11 -3 11 -7 1 -23 -6
-10 -15 -19 -19 -19 -9 0 -248 236 -248 245 0 3 19 5 42 5 40 0 48 5 130 87
72 71 88 93 88 118 0 29 3 26 91 -60 50 -50 104 -107 120 -127z m347 -787 c35
-32 38 -47 20 -86 -17 -38 -62 -35 -88 8 -11 17 -20 38 -20 46 0 15 38 61 50
61 3 0 20 -13 38 -29z m97 -563 c20 -71 24 -76 81 -83 61 -7 67 -19 29 -55
-20 -19 -25 -33 -25 -72 0 -26 -2 -48 -5 -48 -2 0 -19 9 -37 20 -41 25 -54 25
-101 0 -20 -11 -39 -20 -41 -20 -3 0 0 15 5 32 13 45 13 43 -27 88 -20 22 -35
42 -33 45 3 2 27 8 54 12 48 8 50 9 63 56 14 51 27 60 37 25z m-183 -1068 c19
-37 11 -64 -22 -75 -15 -5 -20 -15 -20 -38 0 -36 -24 -77 -45 -77 -7 0 -25 14
-40 31 l-26 32 32 33 c18 19 39 34 46 34 7 0 13 11 13 24 0 37 18 78 33 74 6
-2 20 -19 29 -38z m-351 -372 c8 -15 6 -18 -13 -18 -14 0 -35 -15 -54 -38 -49
-60 -49 -59 2 -92 l47 -30 17 50 c9 28 20 53 24 57 3 3 17 -4 31 -17 l25 -24
-40 -41 -40 -41 34 -33 c19 -19 42 -31 52 -29 24 4 63 62 77 116 6 23 14 42
18 42 16 0 32 -61 21 -84 -12 -28 -78 -104 -124 -144 l-34 -30 1 26 c0 22 -17
39 -99 101 -90 68 -100 73 -111 58 -7 -10 -18 -16 -25 -15 -7 2 -14 -5 -15
-16 -2 -10 -8 -23 -14 -29 -32 -32 5 -136 62 -178 56 -40 81 -38 116 12 17 22
32 46 34 52 3 9 8 9 18 0 10 -11 7 -20 -18 -55 -40 -56 -67 -70 -123 -64 -37
3 -51 12 -92 54 -46 48 -48 53 -48 107 0 79 20 114 127 224 51 52 96 104 99
115 6 19 7 19 21 0 8 -10 19 -27 24 -36z m-354 -318 c-6 -25 2 -41 52 -107 33
-43 71 -89 85 -102 21 -20 35 -51 23 -51 -3 0 -229 49 -266 57 l-24 6 24 -43
c36 -64 73 -100 103 -100 39 0 32 -15 -25 -50 -53 -32 -74 -33 -46 -2 10 10
17 21 17 25 0 3 -27 45 -59 93 -41 60 -69 91 -91 100 -40 17 -50 11 -50 -28 0
-23 -4 -29 -15 -24 -22 8 -95 -40 -95 -62 0 -10 13 -31 28 -46 l29 -27 33 31
c21 19 37 27 42 22 17 -17 4 -45 -27 -55 -16 -5 -31 -11 -33 -12 -6 -5 43 -95
52 -95 14 0 86 51 86 61 0 5 5 9 11 9 6 0 9 -12 7 -27 -2 -22 -18 -37 -78 -75
-85 -53 -94 -56 -85 -28 4 12 -4 42 -19 75 -29 64 -110 181 -130 188 -21 8
-43 -20 -28 -35 18 -18 14 -38 -7 -38 -11 0 -22 4 -25 8 -6 11 -64 3 -72 -10
-8 -13 83 -196 112 -225 14 -14 24 -27 21 -29 -10 -10 -100 -54 -104 -51 -2 2
1 15 6 29 7 19 2 39 -24 95 -18 39 -38 87 -45 107 -6 20 -16 38 -21 42 -17 10
-46 -6 -58 -33 l-12 -27 -23 29 c-28 34 -46 26 -46 -21 0 -37 -10 -43 -30 -19
-7 8 -28 15 -46 15 -27 0 -37 -5 -46 -25 -15 -34 1 -51 72 -71 72 -20 100 -44
100 -87 0 -92 -104 -152 -160 -92 -18 19 -21 28 -12 37 9 9 16 8 30 -5 25 -23
58 -21 82 3 36 36 24 63 -40 85 -49 17 -120 79 -120 105 0 8 9 30 20 48 19 30
23 32 77 32 33 0 63 6 72 14 9 7 54 28 101 45 47 18 94 36 105 41 11 5 59 25
106 44 47 18 105 46 128 60 81 51 112 66 139 66 24 0 169 -29 232 -46 24 -7
24 -6 9 12 -9 10 -29 42 -45 69 -15 28 -37 56 -48 64 -19 14 -18 15 10 38 38
30 48 29 41 -7z m-999 -427 c-2 -5 -10 -20 -18 -36 -12 -24 -11 -41 4 -130 10
-56 25 -113 33 -125 8 -13 13 -25 11 -27 -2 -1 -27 -5 -57 -9 -49 -6 -53 -6
-46 11 4 10 10 26 13 37 7 25 -29 207 -45 227 -27 33 -16 48 40 52 28 2 56 4
60 5 5 1 7 -1 5 -5z"/>
<path d="M3985 8300 c-3 -6 1 -7 9 -4 18 7 21 14 7 14 -6 0 -13 -4 -16 -10z"/>
<path d="M6944 8214 c-13 -19 -15 -32 -8 -51 14 -40 39 -51 71 -31 34 20 40
50 19 84 -22 32 -60 32 -82 -2z"/>
<path d="M3770 8190 c-9 -6 -10 -10 -3 -10 6 0 15 5 18 10 8 12 4 12 -15 0z"/>
<path d="M5120 8055 c0 -83 4 -135 10 -135 15 0 50 38 60 66 6 14 10 52 10 84
0 48 -4 64 -26 89 -48 57 -54 46 -54 -104z"/>
<path d="M3670 8130 c-8 -5 -10 -10 -5 -10 6 0 17 5 25 10 8 5 11 10 5 10 -5
0 -17 -5 -25 -10z"/>
<path d="M3495 8010 c-3 -5 1 -10 9 -10 9 0 16 5 16 10 0 6 -4 10 -9 10 -6 0
-13 -4 -16 -10z"/>
<path d="M3415 7950 c-3 -5 -2 -10 4 -10 5 0 13 5 16 10 3 6 2 10 -4 10 -5 0
-13 -4 -16 -10z"/>
<path d="M3387 7913 c-4 -3 -7 -11 -7 -17 0 -6 5 -5 12 2 6 6 9 14 7 17 -3 3
-9 2 -12 -2z"/>
<path d="M4808 7789 c-103 -14 -242 -51 -227 -60 10 -6 3 -13 -25 -24 -29 -12
-41 -13 -46 -5 -5 8 -9 7 -13 -4 -4 -9 -11 -16 -17 -16 -6 0 -9 4 -6 9 3 5
-48 -9 -113 -32 -66 -23 -117 -45 -114 -51 3 -5 1 -6 -5 -2 -17 10 -204 -44
-229 -67 -26 -23 -31 -57 -8 -57 11 0 15 -11 15 -37 0 -21 7 -60 15 -87 22
-72 17 -273 -11 -455 l-7 -43 29 15 c129 66 465 184 619 215 57 12 210 27 210
21 0 -2 17 14 37 37 20 22 53 49 72 59 30 16 36 26 42 64 5 33 3 46 -6 49 -8
3 -24 16 -37 30 -18 19 -23 36 -23 77 0 49 3 55 48 97 26 25 52 47 57 49 6 2
9 51 7 117 l-4 113 -101 -2 c-56 -2 -128 -6 -159 -10z"/>
<path d="M3220 7775 c-7 -9 -8 -15 -2 -15 5 0 12 7 16 15 3 8 4 15 2 15 -2 0
-9 -7 -16 -15z"/>
<path d="M5118 7639 l-3 -71 34 -20 c87 -54 94 -156 14 -214 -25 -19 -28 -26
-25 -72 4 -49 5 -50 39 -57 24 -4 50 -22 82 -54 l46 -48 115 -12 c149 -16 255
-42 413 -102 164 -63 267 -110 447 -203 80 -41 161 -77 180 -81 89 -16 171 75
108 119 -14 10 -44 16 -80 16 -44 0 -58 4 -58 14 0 17 38 48 80 66 l30 12 -36
42 c-223 252 -449 430 -684 538 -185 86 -437 160 -657 192 l-41 6 -4 -71z
m402 -214 c9 -27 20 -37 56 -51 l45 -17 -31 -18 c-19 -12 -33 -30 -37 -50 -7
-39 -42 -57 -78 -41 -14 6 -25 16 -25 22 0 5 -18 29 -40 52 -46 47 -43 57 20
65 23 3 43 11 45 17 2 6 6 24 9 39 8 34 21 28 36 -18z m438 -183 c10 -32 18
-41 49 -51 21 -6 46 -17 56 -25 16 -12 14 -17 -28 -62 -25 -27 -47 -57 -51
-66 -6 -19 -64 -26 -64 -9 0 5 -11 22 -23 38 -33 39 -40 71 -17 83 19 10 50
78 50 110 0 33 16 22 28 -18z"/>
<path d="M5041 7086 c-58 -32 -69 -119 -22 -167 54 -53 140 -33 171 40 16 39
6 76 -30 112 -32 32 -78 38 -119 15z m84 -90 c0 -36 -26 -56 -49 -37 -9 8 -16
27 -16 43 0 27 2 29 33 26 28 -3 32 -7 32 -32z"/>
<path d="M4685 6946 c-217 -56 -578 -184 -651 -231 -30 -19 -52 -197 -36 -293
7 -37 18 -119 26 -182 8 -63 38 -205 65 -315 150 -589 142 -566 246 -692 199
-240 355 -316 580 -284 l90 13 0 877 c1 482 4 888 8 903 6 21 3 28 -13 33 -41
13 -109 94 -126 151 -19 65 -13 65 -189 20z m-86 -557 c48 -21 121 -84 121
-105 0 -19 -80 -81 -135 -105 -114 -50 -249 -11 -331 97 -26 34 -26 35 -8 55
71 79 243 107 353 58z m266 -401 c3 -13 11 -83 19 -156 10 -107 17 -139 35
-162 l21 -29 -20 -11 c-12 -6 -51 -14 -88 -17 -54 -4 -70 -2 -81 10 -21 27 -9
51 34 65 22 7 43 18 48 25 4 7 5 71 2 144 -4 73 -4 137 0 143 10 17 24 11 30
-12z m92 -644 c30 -8 36 -30 18 -64 -12 -23 -24 -30 -59 -35 -63 -10 -275 2
-292 16 -8 6 -14 29 -14 50 l0 39 163 0 c89 0 172 -3 184 -6z"/>
<path d="M1623 6949 c-37 -11 -85 -66 -93 -106 -15 -72 29 -151 97 -175 l33
-12 0 -278 0 -277 -30 -16 c-96 -49 -89 -188 11 -237 l35 -18 -7 -57 c-4 -32
-8 -250 -8 -485 -1 -236 -5 -428 -9 -428 -23 0 -102 -65 -116 -94 -21 -45 -20
-122 2 -165 21 -42 89 -81 141 -81 49 0 98 27 135 73 27 34 31 47 31 101 0 53
-4 68 -29 100 -15 21 -39 42 -52 48 l-24 11 -1 196 c0 108 0 306 1 441 0 135
-3 266 -8 292 -9 46 -9 47 27 70 103 67 108 183 10 233 l-29 16 0 279 0 280
35 39 c58 64 65 134 20 199 -32 44 -113 69 -172 51z"/>
<path d="M8395 6945 c-78 -39 -102 -154 -45 -219 17 -18 41 -37 54 -40 24 -6
24 -6 38 -162 1 -11 28 -16 28 -5 0 13 21 137 26 152 2 9 18 22 35 29 101 42
100 204 -2 244 -49 20 -95 20 -134 1z"/>
<path d="M3845 6654 c-33 -14 -97 -36 -142 -50 l-82 -26 15 -37 c8 -20 21 -46
29 -57 8 -12 32 -64 53 -115 127 -302 174 -415 212 -509 23 -58 66 -156 96
-218 68 -144 70 -162 25 -176 -30 -9 -36 -7 -54 15 -10 13 -32 50 -48 81 -32
63 -261 628 -314 772 l-32 88 -6 -468 c-4 -257 -8 -468 -10 -470 -1 -1 -20 -4
-42 -6 l-40 -3 -5 485 -5 485 -24 -75 c-13 -41 -68 -176 -121 -300 -54 -124
-128 -301 -165 -395 -80 -201 -85 -212 -119 -247 l-27 -26 363 0 c200 -1 438
4 530 9 122 6 174 6 192 -3 20 -8 29 -8 41 2 22 18 19 51 -5 57 -12 3 -27 17
-34 32 -28 53 -158 548 -182 686 -3 22 -15 56 -27 75 -33 57 -34 290 -1 403 7
22 1 21 -71 -9z"/>
<path d="M6667 6655 c-10 -13 -38 -36 -63 -51 -25 -15 -43 -32 -40 -38 142
-341 292 -686 316 -725 21 -32 5 284 -19 389 -37 162 -146 451 -169 450 -4 0
-15 -12 -25 -25z"/>
<path d="M6399 6382 c-9 -26 -41 -105 -72 -177 -107 -251 -325 -752 -336 -773
-11 -21 -9 -22 36 -24 26 -2 216 -3 420 -3 322 0 374 2 379 15 3 8 12 46 20
83 25 121 21 144 -55 311 -92 202 -226 520 -243 576 l-13 45 -6 -65 c-4 -36
-7 -248 -8 -471 l-1 -407 -22 -6 c-13 -3 -33 -6 -45 -6 l-23 0 -1 448 c-1 246
-4 459 -8 474 -6 25 -7 24 -22 -20z"/>
<path d="M8395 6228 c-50 -18 -84 -47 -112 -96 -23 -38 -28 -59 -28 -113 0
-87 37 -150 112 -194 l52 -30 1 -736 0 -737 -38 -15 c-49 -19 -107 -84 -123
-135 -15 -51 -4 -137 24 -194 37 -73 156 -116 243 -88 90 29 154 117 154 210
0 89 -64 181 -145 207 l-30 10 0 743 0 744 31 8 c40 10 91 60 115 111 20 45
25 139 10 180 -13 34 -68 95 -102 112 -37 20 -127 27 -164 13z m111 -114 c44
-21 64 -50 64 -91 0 -74 -43 -118 -114 -117 -83 3 -128 111 -75 178 37 46 72
55 125 30z m30 -1938 c39 -39 45 -86 19 -137 -30 -58 -118 -68 -167 -19 -28
29 -30 35 -26 87 6 71 37 103 100 103 32 0 47 -7 74 -34z"/>
<path d="M2577 4753 c-9 -21 -11 -126 -9 -411 l2 -382 -27 -11 c-38 -14 -83
-57 -99 -96 -41 -95 19 -203 121 -219 37 -5 54 -2 98 20 68 35 102 84 100 143
-2 62 -39 121 -90 147 l-42 21 -1 392 c0 215 -3 398 -6 407 -10 25 -33 19 -47
-11z"/>
<path d="M5126 4168 c-3 -13 -6 -38 -6 -55 0 -32 1 -33 43 -33 104 0 329 37
437 72 57 19 62 23 40 29 -14 4 -134 7 -266 8 l-242 1 -6 -22z"/>
<path d="M1557 4154 c-13 -13 -7 -42 10 -48 21 -8 36 6 31 30 -3 19 -29 30
-41 18z"/>
<path d="M1730 4139 c0 -24 23 -21 28 4 2 10 -3 17 -12 17 -10 0 -16 -9 -16
-21z"/>
<path d="M1730 3940 c0 -11 7 -20 15 -20 8 0 15 9 15 20 0 11 -7 20 -15 20 -8
0 -15 -9 -15 -20z"/>
<path d="M1557 3944 c-16 -16 -6 -35 16 -32 12 2 22 10 22 18 0 16 -26 25 -38
14z"/>
<path d="M3256 3824 c-3 -9 -6 -143 -6 -298 0 -156 -3 -418 -7 -584 -6 -286
-7 -302 -25 -302 -31 0 -103 -80 -117 -132 -26 -94 18 -170 121 -206 60 -21
69 -22 99 -9 89 37 141 114 129 192 -8 55 -55 124 -98 145 l-31 15 0 585 c0
542 -2 586 -18 597 -23 17 -40 16 -47 -3z m77 -1316 c42 -56 11 -118 -60 -118
-42 0 -83 40 -83 82 0 21 8 33 33 48 42 27 85 22 110 -12z"/>
<path d="M1720 3777 c0 -7 5 -18 12 -25 15 -15 39 3 31 24 -7 18 -43 19 -43 1z"/>
<path d="M6777 3778 c-9 -5 -17 -15 -17 -22 0 -7 187 -201 417 -430 379 -380
419 -417 442 -411 35 9 35 10 18 36 -25 34 -714 745 -764 787 -54 45 -74 53
-96 40z"/>
<path d="M1550 3760 c0 -22 20 -26 38 -8 19 19 14 28 -13 28 -18 0 -25 -5 -25
-20z"/>
<path d="M5120 3626 c0 -26 4 -36 16 -36 11 0 14 8 12 32 -4 46 -28 49 -28 4z"/>
<path d="M1563 3623 c-7 -3 -13 -18 -13 -35 0 -25 3 -29 23 -26 17 2 21 9 19
28 -3 29 -12 39 -29 33z"/>
<path d="M1734 3616 c-9 -25 0 -61 16 -61 22 0 26 60 5 69 -9 3 -18 0 -21 -8z"/>
<path d="M2918 3585 c-2 -19 0 -35 4 -35 4 0 8 16 8 35 0 19 -2 35 -4 35 -2 0
-6 -16 -8 -35z"/>
<path d="M6510 3590 c-12 -8 -12 -12 0 -36 21 -38 876 -894 894 -894 19 0 76
-48 76 -64 0 -7 -12 -23 -26 -37 -37 -34 -73 -118 -86 -205 -16 -100 3 -265
39 -349 14 -33 26 -71 27 -85 3 -41 23 -66 78 -100 29 -18 71 -48 94 -66 81
-67 220 -114 334 -114 101 0 224 32 284 74 26 18 83 33 143 39 26 2 43 17 20
17 -29 0 -19 35 27 97 58 78 83 130 107 220 42 167 10 380 -75 493 l-26 34 35
36 35 36 -30 47 c-16 26 -34 47 -40 47 -5 0 -26 -18 -47 -40 l-36 -41 -32 36
c-38 41 -138 90 -214 105 -79 15 -218 12 -286 -5 -69 -18 -140 -55 -194 -102
-44 -37 -59 -40 -103 -17 -22 11 -33 13 -41 5 -14 -14 -37 -14 -37 0 0 22
-864 879 -885 879 -11 0 -27 -4 -35 -10z m1610 -888 c30 -12 87 -46 125 -75
60 -45 76 -65 113 -134 57 -109 71 -203 49 -318 -27 -140 -52 -192 -129 -267
-136 -133 -299 -172 -474 -113 -91 30 -100 37 -180 116 -110 108 -155 247
-134 408 13 101 34 163 70 216 56 81 131 137 228 171 58 21 82 23 172 21 78
-3 119 -9 160 -25z"/>
<path d="M8094 2510 c-111 -16 -206 -61 -273 -128 -52 -53 -111 -157 -111
-196 0 -23 4 -26 32 -26 27 0 45 13 117 89 80 82 91 91 155 110 37 12 76 21
85 21 32 1 215 76 225 94 26 41 -79 58 -230 36z"/>
<path d="M8125 2322 c-11 -10 -38 -46 -60 -81 -50 -78 -100 -104 -240 -126
-241 -38 -302 -66 -217 -102 73 -31 342 0 437 50 74 38 137 139 139 222 1 43
-2 50 -19 53 -11 1 -29 -6 -40 -16z"/>
<path d="M2752 3540 c0 -14 2 -19 5 -12 2 6 2 18 0 25 -3 6 -5 1 -5 -13z"/>
<path d="M3803 3488 c-4 -7 -9 -339 -9 -737 l-1 -724 -44 -21 c-53 -26 -79
-60 -90 -121 -15 -83 16 -161 76 -189 41 -20 134 -21 179 -2 102 42 99 258 -5
307 l-34 17 -5 733 c-3 481 -8 733 -15 732 -5 0 -18 3 -27 8 -11 6 -19 5 -25
-3z m57 -1578 c22 -12 42 -64 33 -88 -18 -51 -63 -66 -108 -36 -19 12 -25 25
-25 53 0 44 8 57 40 70 33 13 38 13 60 1z"/>
<path d="M1556 3389 c-10 -50 -7 -59 14 -59 15 0 20 7 20 29 0 62 -23 82 -34
30z"/>
<path d="M1911 3402 c-16 -29 -14 -62 4 -62 19 0 30 43 17 66 -9 16 -10 16
-21 -4z"/>
<path d="M2404 3406 c-3 -8 -1 -23 5 -33 9 -15 10 -13 11 15 0 34 -7 42 -16
18z"/>
<path d="M1737 3393 c-4 -3 -7 -19 -7 -35 0 -21 5 -28 20 -28 16 0 20 7 20 35
0 33 -16 46 -33 28z"/>
<path d="M2568 3394 c-9 -9 7 -57 20 -62 8 -2 12 9 12 32 0 33 -15 47 -32 30z"/>
<path d="M2745 3387 c-9 -22 -2 -62 10 -60 6 1 11 14 13 29 4 32 -14 56 -23
31z"/>
<path d="M2917 3393 c-4 -3 -7 -19 -7 -35 0 -40 24 -31 28 10 3 30 -6 41 -21
25z"/>
<path d="M3080 3365 c0 -16 6 -25 15 -25 9 0 15 9 15 25 0 16 -6 25 -15 25 -9
0 -15 -9 -15 -25z"/>
<path d="M5716 3234 c-8 -20 -6 -938 3 -1157 6 -160 5 -170 -16 -210 -50 -96
-13 -225 79 -273 40 -21 124 -18 174 6 55 27 74 67 74 155 0 111 -50 163 -166
173 l-51 4 -7 87 c-3 47 -9 344 -13 659 l-6 572 -32 0 c-21 0 -35 -6 -39 -16z
m202 -1434 c40 -25 42 -57 6 -99 -34 -40 -67 -40 -105 0 -72 77 6 155 99 99z"/>
<path d="M1737 3203 c-4 -3 -7 -19 -7 -35 0 -43 34 -34 38 10 3 31 -13 44 -31
25z"/>
<path d="M3444 3195 c-9 -23 3 -45 26 -45 23 0 23 0 10 34 -11 29 -28 34 -36
11z"/>
<path d="M1557 3193 c-10 -10 -8 -51 2 -58 13 -7 34 33 27 51 -6 15 -18 18
-29 7z"/>
<path d="M1898 3188 c-7 -21 3 -48 19 -48 10 0 13 9 11 27 -3 28 -23 42 -30
21z"/>
<path d="M2416 3193 c-13 -13 -6 -63 9 -63 10 0 15 10 15 29 0 30 -12 46 -24
34z"/>
<path d="M2565 3190 c-9 -15 6 -60 21 -60 9 0 14 12 14 35 0 34 -20 49 -35 25z"/>
<path d="M2740 3171 c0 -34 15 -49 24 -25 11 28 6 54 -9 54 -10 0 -15 -10 -15
-29z"/>
<path d="M2908 3175 c-3 -14 -1 -28 3 -31 15 -9 29 6 29 32 0 32 -26 31 -32
-1z"/>
<path d="M3080 3170 c0 -16 5 -30 10 -30 6 0 10 14 10 30 0 17 -4 30 -10 30
-5 0 -10 -13 -10 -30z"/>
<path d="M3610 3176 c0 -33 20 -44 37 -20 17 24 12 38 -15 42 -18 3 -22 -2
-22 -22z"/>
<path d="M4020 3175 c0 -18 5 -25 20 -25 15 0 20 7 20 25 0 18 -5 25 -20 25
-15 0 -20 -7 -20 -25z"/>
<path d="M5086 3129 c-3 -17 -6 -287 -6 -600 l0 -569 -37 -19 c-67 -34 -102
-93 -103 -176 0 -77 73 -158 155 -171 83 -12 181 58 205 147 20 72 -26 161
-101 199 l-39 20 -2 598 -3 597 -31 3 c-28 3 -32 0 -38 -29z m88 -1311 c21
-29 20 -77 -1 -100 -23 -26 -87 -24 -114 3 -26 26 -20 75 12 102 31 25 84 22
103 -5z"/>
<path d="M1898 3006 c-13 -30 -5 -56 19 -56 16 0 18 7 15 40 -5 45 -17 51 -34
16z"/>
<path d="M2740 3005 c-11 -30 -4 -56 15 -59 14 -1 18 50 6 71 -8 16 -11 15
-21 -12z"/>
<path d="M3622 3021 c-18 -11 -11 -66 8 -66 10 0 16 12 18 38 3 37 -2 43 -26
28z"/>
<path d="M1550 2987 c0 -27 4 -37 15 -37 26 0 29 30 6 53 l-21 21 0 -37z"/>
<path d="M2404 3006 c-9 -24 0 -51 19 -54 15 -3 18 2 15 29 -3 35 -24 51 -34
25z"/>
<path d="M2577 3013 c-13 -12 -7 -61 8 -67 12 -4 15 3 15 34 0 38 -8 49 -23
33z"/>
<path d="M2917 3014 c-4 -4 -7 -20 -7 -36 0 -35 23 -34 28 1 4 25 -10 46 -21
35z"/>
<path d="M3442 2988 c2 -25 8 -34 26 -36 16 -3 22 2 22 16 0 34 -11 52 -32 52
-16 0 -19 -6 -16 -32z"/>
<path d="M1724 2995 c-9 -23 3 -45 26 -45 16 0 20 7 20 30 0 23 -4 30 -20 30
-11 0 -23 -7 -26 -15z"/>
<path d="M3082 2983 c4 -39 28 -42 28 -4 0 21 -5 31 -16 31 -11 0 -14 -8 -12
-27z"/>
<path d="M4030 2986 c0 -14 5 -26 10 -26 6 0 10 9 10 19 0 11 -4 23 -10 26 -6
4 -10 -5 -10 -19z"/>
<path d="M2072 2969 c2 -7 10 -15 17 -17 8 -3 12 1 9 9 -2 7 -10 15 -17 17 -8
3 -12 -1 -9 -9z"/>
<path d="M2243 2833 c-7 -2 -13 -16 -13 -29 0 -19 5 -24 25 -24 25 0 31 13 19
44 -6 17 -11 18 -31 9z"/>
<path d="M2405 2821 c-8 -25 1 -41 21 -41 11 0 14 8 12 27 -4 33 -24 41 -33
14z"/>
<path d="M3434 2825 c-8 -20 13 -45 37 -45 19 0 24 16 13 44 -8 20 -43 21 -50
1z"/>
<path d="M1545 2820 c-11 -17 5 -51 23 -48 23 4 23 52 0 56 -9 2 -19 -2 -23
-8z"/>
<path d="M1727 2824 c-4 -4 -7 -16 -7 -26 0 -14 6 -19 23 -16 14 2 22 10 22
23 0 20 -25 32 -38 19z"/>
<path d="M1886 2814 c-8 -21 1 -34 24 -34 10 0 21 4 24 9 10 16 -5 41 -24 41
-10 0 -21 -7 -24 -16z"/>
<path d="M2054 2816 c-9 -22 4 -36 32 -36 21 0 25 4 22 23 -4 26 -45 37 -54
13z"/>
<path d="M2572 2803 c2 -17 10 -29 21 -31 13 -3 17 3 17 27 0 25 -4 31 -21 31
-16 0 -20 -5 -17 -27z"/>
<path d="M2740 2815 c-15 -18 -6 -45 15 -45 10 0 15 10 15 30 0 33 -11 38 -30
15z"/>
<path d="M2909 2809 c-7 -14 -8 -24 -1 -31 15 -15 32 0 32 28 0 30 -15 31 -31
3z"/>
<path d="M3080 2805 c0 -16 6 -25 15 -25 9 0 15 9 15 25 0 16 -6 25 -15 25 -9
0 -15 -9 -15 -25z"/>
<path d="M3610 2820 c-13 -8 -13 -11 2 -26 20 -20 51 -11 46 13 -4 21 -27 27
-48 13z"/>
<path d="M4020 2810 c0 -11 7 -20 15 -20 8 0 15 9 15 20 0 11 -7 20 -15 20 -8
0 -15 -9 -15 -20z"/>
<path d="M1551 2646 c-9 -11 -10 -20 -1 -35 23 -43 52 -14 34 33 -8 20 -18 20
-33 2z"/>
<path d="M1724 2646 c-9 -24 0 -51 19 -54 14 -3 17 4 17 32 0 26 -4 36 -15 36
-9 0 -18 -6 -21 -14z"/>
<path d="M1890 2634 c-13 -34 -13 -34 15 -34 30 0 43 24 25 45 -18 22 -29 19
-40 -11z"/>
<path d="M2060 2630 c0 -23 4 -30 20 -30 25 0 36 25 20 45 -21 25 -40 18 -40
-15z"/>
<path d="M2407 2653 c-4 -3 -7 -17 -7 -30 0 -18 5 -23 25 -23 27 0 31 10 15
41 -11 20 -22 24 -33 12z"/>
<path d="M2570 2631 c0 -33 16 -49 32 -33 14 14 1 62 -17 62 -10 0 -15 -10
-15 -29z"/>
<path d="M2740 2625 c0 -24 5 -35 14 -35 21 0 29 17 22 46 -10 38 -36 30 -36
-11z"/>
<path d="M2910 2645 c-16 -19 -9 -49 13 -53 14 -3 17 4 17 32 0 38 -10 45 -30
21z"/>
<path d="M3440 2645 c-17 -20 4 -45 37 -45 19 0 24 4 19 16 -3 9 -6 22 -6 30
0 19 -34 18 -50 -1z"/>
<path d="M3617 2654 c-4 -4 -7 -18 -7 -31 0 -18 5 -23 26 -23 22 0 25 4 22 27
-3 27 -26 41 -41 27z"/>
<path d="M2237 2644 c-12 -12 -8 -42 6 -47 21 -8 39 8 35 29 -3 19 -29 30 -41
18z"/>
<path d="M3074 2635 c-9 -21 3 -45 21 -45 10 0 15 10 15 30 0 32 -26 43 -36
15z"/>
<path d="M4027 2643 c-13 -12 -7 -33 8 -33 8 0 15 9 15 20 0 20 -11 26 -23 13z"/>
<path d="M1724 2477 c-8 -21 -1 -60 11 -64 23 -7 38 14 28 43 -11 32 -30 43
-39 21z"/>
<path d="M1897 2484 c-4 -4 -7 -20 -7 -36 0 -22 5 -28 21 -28 17 0 20 5 17 32
-3 31 -17 45 -31 32z"/>
<path d="M2916 2483 c-13 -13 -6 -63 9 -63 10 0 15 10 15 29 0 30 -12 46 -24
34z"/>
<path d="M1550 2450 c0 -23 4 -30 20 -30 22 0 23 3 14 38 -9 33 -34 28 -34 -8z"/>
<path d="M2060 2450 c0 -23 5 -30 19 -30 19 0 31 18 31 46 0 8 -10 14 -25 14
-21 0 -25 -5 -25 -30z"/>
<path d="M2230 2450 c0 -25 4 -30 25 -30 21 0 25 5 25 30 0 25 -4 30 -25 30
-21 0 -25 -5 -25 -30z"/>
<path d="M2407 2473 c-4 -3 -7 -17 -7 -30 0 -16 6 -23 20 -23 16 0 20 7 20 30
0 28 -17 40 -33 23z"/>
<path d="M2574 2466 c-8 -21 -1 -49 14 -54 8 -2 12 8 12 32 0 36 -16 49 -26
22z"/>
<path d="M2744 2466 c-8 -21 -1 -49 14 -54 8 -2 12 8 12 32 0 36 -16 49 -26
22z"/>
<path d="M3617 2473 c-4 -3 -7 -17 -7 -30 0 -16 6 -23 20 -23 16 0 20 7 20 30
0 28 -17 40 -33 23z"/>
<path d="M4026 2473 c-12 -12 -6 -43 9 -43 8 0 15 9 15 19 0 21 -13 34 -24 24z"/>
<path d="M2740 2314 c-7 -19 -7 -31 1 -40 20 -24 29 -15 29 26 0 46 -16 53
-30 14z"/>
<path d="M1557 2323 c-4 -3 -7 -17 -7 -30 0 -18 5 -23 25 -23 27 0 31 10 15
41 -11 20 -22 24 -33 12z"/>
<path d="M1727 2324 c-4 -4 -7 -18 -7 -31 0 -18 5 -23 26 -23 22 0 25 4 22 27
-3 27 -26 41 -41 27z"/>
<path d="M1897 2323 c-4 -3 -7 -17 -7 -30 0 -18 5 -23 25 -23 20 0 25 5 25 24
0 13 -7 27 -16 30 -19 7 -19 7 -27 -1z"/>
<path d="M2061 2307 c-5 -12 -7 -25 -4 -29 7 -13 40 -9 53 7 14 17 7 31 -20
38 -15 4 -23 -1 -29 -16z"/>
<path d="M2237 2323 c-23 -23 6 -59 38 -47 18 7 18 9 5 35 -11 19 -31 25 -43
12z"/>
<path d="M2570 2315 c-16 -20 -5 -45 20 -45 16 0 20 7 20 30 0 33 -19 40 -40
15z"/>
<path d="M2904 2304 c-4 -17 -2 -29 7 -35 24 -15 29 -10 29 26 0 42 -26 49
-36 9z"/>
<path d="M2397 2300 c-3 -13 1 -21 14 -25 25 -8 39 1 39 26 0 27 -46 26 -53
-1z"/>
<path d="M3093 2313 c-18 -7 -16 -43 2 -43 18 0 31 28 19 39 -5 5 -15 6 -21 4z"/>
<path d="M3444 2305 c-9 -23 3 -45 25 -45 23 0 32 18 19 43 -11 21 -37 22 -44
2z"/>
<path d="M3609 2299 c-9 -17 -8 -23 2 -30 26 -16 39 -9 39 21 0 36 -24 41 -41
9z"/>
<path d="M4024 2299 c-3 -6 -1 -16 5 -22 8 -8 11 -5 11 11 0 24 -5 28 -16 11z"/>
<path d="M1567 2173 c-4 -3 -7 -21 -7 -40 0 -23 5 -33 15 -33 10 0 15 10 15
28 0 31 -13 56 -23 45z"/>
<path d="M1742 2171 c-19 -11 -12 -76 8 -76 10 0 16 12 18 34 4 38 -7 54 -26
42z"/>
<path d="M1900 2141 c0 -35 3 -41 21 -41 17 0 20 5 17 37 -2 27 -8 39 -20 41
-15 3 -18 -4 -18 -37z"/>
<path d="M2747 2173 c-4 -3 -7 -21 -7 -40 0 -23 5 -33 15 -33 11 0 15 11 15
40 0 38 -8 49 -23 33z"/>
<path d="M2070 2135 c0 -39 24 -49 33 -14 7 27 -1 49 -19 49 -9 0 -14 -12 -14
-35z"/>
<path d="M2243 2163 c-19 -7 -16 -60 4 -67 23 -9 35 6 31 40 -3 28 -13 36 -35
27z"/>
<path d="M2402 2138 c2 -22 9 -34 21 -36 14 -3 17 4 17 32 0 30 -4 36 -21 36
-17 0 -20 -5 -17 -32z"/>
<path d="M2568 2153 c-7 -31 3 -53 24 -53 14 0 18 5 14 16 -3 9 -6 24 -6 35 0
24 -26 25 -32 2z"/>
<path d="M2917 2164 c-11 -11 -9 -62 3 -69 6 -3 12 0 15 7 7 18 -9 71 -18 62z"/>
<path d="M3096 2163 c-13 -13 -6 -63 9 -63 10 0 15 10 15 29 0 30 -12 46 -24
34z"/>
<path d="M3260 2134 c0 -28 3 -35 18 -32 11 2 18 14 20 36 3 27 0 32 -17 32
-17 0 -21 -6 -21 -36z"/>
<path d="M3453 2163 c-7 -2 -13 -20 -13 -40 0 -27 4 -34 18 -31 12 2 18 14 20
41 3 36 0 41 -25 30z"/>
<path d="M3616 2153 c-11 -11 -6 -40 9 -53 13 -11 15 -8 15 18 0 31 -11 47
-24 35z"/>
<path d="M2246 1997 c-24 -18 -18 -62 9 -62 15 0 21 8 23 29 4 36 -9 50 -32
33z"/>
<path d="M1560 1966 c0 -38 15 -55 33 -37 13 13 -1 62 -20 69 -9 2 -13 -8 -13
-32z"/>
<path d="M1730 1959 c0 -33 3 -40 18 -37 12 2 18 14 20 41 3 32 0 37 -17 37
-18 0 -21 -6 -21 -41z"/>
<path d="M1900 1965 c0 -39 22 -48 40 -16 17 33 12 51 -15 51 -22 0 -25 -4
-25 -35z"/>
<path d="M2060 1964 c0 -31 3 -35 23 -32 17 2 23 11 25 36 3 29 1 32 -22 32
-23 0 -26 -4 -26 -36z"/>
<path d="M2404 1986 c-9 -24 0 -51 19 -54 14 -3 17 4 17 32 0 26 -4 36 -15 36
-9 0 -18 -6 -21 -14z"/>
<path d="M2572 1968 c4 -46 28 -49 28 -4 0 26 -4 36 -16 36 -11 0 -14 -8 -12
-32z"/>
<path d="M2745 1985 c-3 -8 -7 -21 -9 -29 -5 -14 12 -36 26 -36 4 0 8 18 8 40
0 39 -16 55 -25 25z"/>
<path d="M2917 1993 c-14 -13 -7 -63 8 -63 10 0 15 11 15 35 0 33 -8 43 -23
28z"/>
<path d="M3092 1988 c-20 -20 -15 -58 8 -58 15 0 20 7 20 29 0 34 -12 45 -28
29z"/>
<path d="M3260 1965 c0 -29 3 -36 18 -33 11 2 17 13 17 33 0 20 -6 31 -17 33
-15 3 -18 -4 -18 -33z"/>
<path d="M3437 1993 c-13 -12 -7 -61 7 -66 20 -8 26 2 26 40 0 31 -16 44 -33
26z"/>
<path d="M3607 1973 c-14 -13 -6 -33 13 -33 13 0 20 7 20 20 0 19 -20 27 -33
13z"/>
<path d="M4030 1966 c0 -21 20 -30 33 -17 9 9 8 14 -3 21 -21 14 -30 12 -30
-4z"/>
<path d="M1567 1804 c-7 -40 3 -61 22 -50 15 9 13 36 -3 65 -13 23 -13 23 -19
-15z"/>
<path d="M1911 1826 c-17 -20 -10 -71 9 -71 10 0 16 13 18 43 3 43 -6 53 -27
28z"/>
<path d="M2067 1834 c-14 -14 -7 -65 9 -71 20 -8 35 14 32 47 -3 24 -27 38
-41 24z"/>
<path d="M2247 1833 c-4 -3 -7 -21 -7 -40 0 -26 4 -33 20 -33 21 0 25 16 14
58 -6 22 -15 27 -27 15z"/>
<path d="M2407 1833 c-11 -11 -8 -58 5 -71 19 -19 28 -14 28 17 0 49 -15 73
-33 54z"/>
<path d="M2570 1816 c-12 -32 2 -66 27 -66 12 0 14 7 10 37 -9 51 -24 63 -37
29z"/>
<path d="M3440 1819 c-15 -28 -9 -63 13 -67 14 -3 17 4 17 42 0 49 -12 59 -30
25z"/>
<path d="M1736 1815 c-10 -28 -7 -53 9 -59 18 -7 28 13 23 45 -4 27 -23 36
-32 14z"/>
<path d="M2742 1818 c-20 -20 -15 -58 8 -58 16 0 20 7 20 35 0 37 -8 43 -28
23z"/>
<path d="M3266 1814 c-12 -32 -6 -54 14 -54 13 0 20 7 20 19 0 25 -10 51 -20
51 -4 0 -11 -7 -14 -16z"/>
<path d="M2908 1790 c-3 -17 -1 -33 4 -36 15 -10 28 7 28 37 0 39 -26 38 -32
-1z"/>
<path d="M3082 1783 c2 -20 8 -28 23 -28 31 0 28 49 -3 53 -20 3 -23 0 -20
-25z"/>
<path d="M4045 1800 c3 -5 11 -10 16 -10 6 0 7 5 4 10 -3 6 -11 10 -16 10 -6
0 -7 -4 -4 -10z"/>
<path d="M2243 1653 c-18 -7 -16 -50 3 -57 21 -8 34 1 34 23 0 22 -20 40 -37
34z"/>
<path d="M4027 1635 c6 -31 14 -37 33 -25 18 11 3 43 -22 48 -12 2 -14 -4 -11
-23z"/>
<path d="M1560 1635 c-16 -19 -6 -45 19 -45 25 0 34 26 15 45 -19 18 -19 18
-34 0z"/>
<path d="M1729 1640 c-11 -7 -11 -14 -3 -27 14 -23 48 -23 52 -1 4 21 -29 40
-49 28z"/>
<path d="M1897 1643 c-10 -10 -8 -41 3 -48 15 -10 50 5 50 20 0 8 -9 19 -19
25 -23 12 -26 12 -34 3z"/>
<path d="M2054 1636 c-10 -26 4 -48 28 -44 17 2 23 10 23 28 0 18 -6 26 -23
28 -13 2 -25 -3 -28 -12z"/>
<path d="M2397 1644 c-14 -15 -6 -43 14 -49 25 -8 42 6 37 31 -3 19 -38 31
-51 18z"/>
<path d="M2573 1643 c-7 -2 -13 -16 -13 -30 0 -20 4 -24 23 -21 16 2 23 11 25
31 3 27 -6 32 -35 20z"/>
<path d="M2731 1636 c-15 -18 -3 -46 19 -46 18 0 30 19 30 46 0 18 -34 18 -49
0z"/>
<path d="M2907 1643 c-11 -10 -8 -41 4 -49 16 -9 43 21 36 40 -7 16 -28 21
-40 9z"/>
<path d="M3264 1635 c-7 -18 3 -35 22 -35 8 0 14 10 14 25 0 27 -27 35 -36 10z"/>
<path d="M3440 1635 c-10 -12 -10 -19 -2 -27 16 -16 42 -2 42 22 0 24 -22 26
-40 5z"/>
<path d="M3080 1621 c0 -22 21 -33 40 -21 18 11 4 40 -20 40 -13 0 -20 -7 -20
-19z"/>
<path d="M3622 1618 c4 -31 53 -34 53 -3 0 15 -8 21 -28 23 -25 3 -28 0 -25
-20z"/>
<path d="M3840 1610 c0 -11 6 -20 13 -20 19 0 27 10 20 26 -8 21 -33 17 -33
-6z"/>
</g>
</svg>
